ply
format ascii 1.0
element vertex 558
property float x
property float y
property float z
property float s
property float t
element face 1034
property list uchar int vertex_indices
end_header
-0.043227 0.212200 -0.083421 0.456773 0.287800
-0.044419 0.112143 -0.199454 0.455581 0.387857
-0.042322 0.137814 -0.091296 0.457678 0.362186
-0.069248 -0.010040 -0.167394 0.430752 0.510040
-0.043136 0.078418 -0.218529 0.456864 0.421582
-0.039818 0.029005 -0.210915 0.460182 0.470995
-0.030027 -0.098890 -0.130085 0.469973 0.598890
-0.308860 -0.137809 0.028584 0.191140 0.637809
-0.024603 -0.209328 -0.121005 0.475397 0.709328
-0.022386 -0.261350 -0.140398 0.477614 0.761350
-0.011198 -0.448372 -0.139796 0.488802 0.948372
-0.043703 0.224609 -0.075570 0.456297 0.275391
-0.043817 0.236572 -0.059629 0.456183 0.263428
-0.043319 0.244330 -0.035650 0.456681 0.255670
-0.043937 0.245921 -0.034350 0.456063 0.254079
-0.044713 0.264938 -0.032465 0.455287 0.235062
-0.045556 0.287237 -0.034913 0.454444 0.212763
-0.046019 0.309033 -0.022392 0.453981 0.190967
-0.044391 0.329709 0.026431 0.455609 0.170291
-0.044046 0.126261 -0.176477 0.455954 0.373739
-0.076870 0.120774 -0.120620 0.423130 0.379226
-0.412307 -0.312774 0.191036 0.087693 0.812774
-0.198507 -0.098401 -0.013629 0.301493 0.598401
-0.235829 -0.095850 -0.007717 0.264171 0.595850
-0.271784 -0.098680 0.005441 0.228216 0.598680
-0.320365 -0.127643 0.039108 0.179635 0.627643
-0.166890 -0.104876 -0.010915 0.333110 0.604876
-0.254133 -0.214810 -0.037642 0.245867 0.714810
-0.209162 -0.205907 -0.041521 0.290838 0.705907
-0.295400 -0.211199 -0.020584 0.204600 0.711199
-0.321811 -0.197268 -0.002060 0.178189 0.697268
-0.343880 -0.105811 0.064361 0.156120 0.605811
-0.173524 0.354145 0.088112 0.326476 0.145855
-0.321486 -0.152958 0.041425 0.178514 0.652958
-0.422569 -0.155669 0.238184 0.077431 0.655669
-0.379994 -0.138633 0.101027 0.120006 0.638633
-0.220232 0.054309 -0.015294 0.279768 0.445691
-0.084099 0.201450 -0.076367 0.415901 0.298550
-0.079780 0.232399 -0.052295 0.420220 0.267601
-0.122354 0.208948 -0.050077 0.377646 0.291052
-0.148323 0.217547 -0.020534 0.351677 0.282453
-0.110185 0.230545 -0.036635 0.389815 0.269455
-0.134317 0.230798 -0.010106 0.365683 0.269202
-0.195647 0.260971 0.055260 0.304353 0.239029
-0.074505 0.109412 -0.195281 0.425495 0.390588
-0.079131 0.076946 -0.212668 0.420869 0.423054
-0.363647 -0.232627 0.008141 0.136353 0.732627
-0.144191 -0.031907 -0.041936 0.355809 0.531907
-0.151471 0.087931 -0.097451 0.348529 0.412069
-0.152621 0.067745 -0.088941 0.347379 0.432255
-0.326915 0.040704 0.039293 0.173085 0.459296
-0.074668 0.030871 -0.196956 0.425332 0.469129
-0.281370 -0.259880 -0.069790 0.218630 0.759880
-0.331447 -0.254605 -0.033261 0.168553 0.754605
-0.386630 -0.368422 0.098794 0.113370 0.868422
-0.116348 -0.214477 -0.107599 0.383652 0.714477
-0.171468 -0.184712 -0.030595 0.328532 0.684712
-0.219863 0.230189 0.057850 0.280137 0.269811
-0.359987 0.140606 0.421787 0.140013 0.359394
-0.124128 0.107977 -0.080848 0.375872 0.392023
-0.096338 0.119799 -0.080985 0.403662 0.380201
-0.182092 0.230910 0.049222 0.317908 0.269090
-0.173419 0.231937 0.036288 0.326581 0.268063
-0.346889 -0.280855 -0.020021 0.153111 0.780855
-0.150253 0.100561 -0.072964 0.349747 0.399439
-0.212238 -0.249314 -0.096403 0.287762 0.749314
-0.216813 -0.279478 -0.110791 0.283187 0.779478
-0.245353 -0.436917 -0.076452 0.254647 0.936917
-0.369538 -0.325754 0.027958 0.130462 0.825754
-0.228377 -0.359463 -0.098504 0.271623 0.859463
-0.380561 -0.252769 0.038191 0.119439 0.752769
-0.398630 -0.282287 0.106201 0.101370 0.782287
-0.083031 0.218812 -0.069045 0.416969 0.281188
-0.116533 0.220679 -0.045194 0.383467 0.279321
-0.141787 0.224401 -0.018528 0.358213 0.275599
-0.115217 0.113985 -0.070965 0.384783 0.386015
-0.177651 0.231508 0.042284 0.322349 0.268492
-0.163047 0.241533 0.021662 0.336953 0.258467
-0.168695 0.232498 0.035302 0.331305 0.267502
-0.111148 0.100908 -0.137546 0.388852 0.399092
-0.128150 0.235331 -0.000320 0.371850 0.264669
-0.104337 0.236991 -0.016508 0.395663 0.263009
-0.075897 0.240432 -0.029808 0.424103 0.259568
-0.090558 0.325135 0.029027 0.409442 0.174865
-0.089025 0.303517 -0.019124 0.410975 0.196483
-0.086618 0.281534 -0.029801 0.413382 0.218466
-0.082210 0.259464 -0.026952 0.417790 0.240536
-0.076997 0.242019 -0.028445 0.423003 0.257981
-0.129283 0.235306 0.000851 0.370717 0.264694
-0.137255 0.243108 -0.000099 0.362745 0.256892
-0.145970 0.253687 -0.002749 0.354030 0.246313
-0.152927 0.265575 0.006676 0.347073 0.234425
-0.183600 0.181468 -0.012219 0.316400 0.318532
-0.403258 -0.026615 0.440099 0.096742 0.526615
-0.043265 0.131474 -0.121566 0.456735 0.368526
-0.147087 0.233698 0.020540 0.352913 0.266302
-0.155098 0.237321 0.019985 0.344902 0.262679
-0.085766 0.133582 -0.078930 0.414234 0.366418
-0.137116 0.119038 -0.041029 0.362884 0.380962
-0.090776 0.126906 -0.081121 0.409224 0.373094
-0.183179 -0.014270 -0.021666 0.316821 0.514270
-0.245299 0.007230 -0.001708 0.254701 0.492770
-0.156835 0.080582 -0.063915 0.343165 0.419418
-0.335092 -0.410703 0.005097 0.164908 0.910703
-0.316353 -0.353518 -0.039114 0.183647 0.853518
-0.291492 -0.290183 -0.070477 0.208508 0.790183
-0.168887 0.284983 0.042570 0.331113 0.215017
-0.126864 -0.263748 -0.132562 0.373136 0.763748
-0.131160 -0.355557 -0.133343 0.368840 0.855557
-0.140131 -0.448166 -0.125030 0.359869 0.948166
-0.303207 -0.109284 0.023788 0.196793 0.609284
-0.378734 -0.081963 0.092058 0.121266 0.581963
-0.146104 -0.111824 -0.007954 0.353896 0.611824
-0.351956 -0.183210 0.035297 0.148044 0.683210
-0.118301 -0.052219 -0.060518 0.381699 0.552219
-0.133836 0.079121 -0.139199 0.366164 0.420879
-0.405020 -0.070706 0.143495 0.094980 0.570706
-0.357526 -0.051270 0.060740 0.142474 0.551270
-0.312694 -0.032332 0.024265 0.187306 0.532332
-0.242426 -0.034660 0.004081 0.257574 0.534660
-0.190242 -0.047500 -0.010298 0.309758 0.547500
-0.151589 -0.061324 -0.025700 0.348411 0.561324
-0.067450 -0.092296 -0.112542 0.432550 0.592296
-0.396204 0.005528 0.147781 0.103796 0.494472
-0.374790 -0.190403 0.053682 0.125210 0.690403
-0.062287 0.124254 -0.173495 0.437713 0.375746
-0.140058 0.006646 -0.051610 0.359942 0.493354
-0.422216 -0.175844 0.372507 0.077784 0.675844
-0.121928 -0.077548 -0.036756 0.378072 0.577548
-0.158425 0.079091 -0.025573 0.341575 0.420909
-0.335043 -0.153752 0.050466 0.164957 0.653752
-0.133502 0.054559 -0.128574 0.366498 0.445441
-0.385146 0.054177 0.441953 0.114854 0.445823
-0.146207 -0.125062 -0.001950 0.353793 0.625062
-0.106106 0.038968 -0.170389 0.393894 0.461032
-0.302045 0.253405 0.219086 0.197955 0.246595
-0.293228 0.271882 0.304347 0.206772 0.228118
-0.411127 -0.010600 0.292087 0.088873 0.510600
-0.339818 0.200519 0.262134 0.160182 0.299481
-0.412153 -0.223787 0.182059 0.087847 0.723787
-0.177548 0.375960 0.121815 0.322452 0.124040
-0.057769 0.129529 -0.118548 0.442231 0.370471
-0.173171 0.029198 -0.030680 0.326829 0.470802
-0.405086 -0.135733 0.141891 0.094914 0.635733
-0.271650 -0.119089 0.004202 0.228350 0.619089
-0.238267 -0.115910 0.000553 0.261733 0.615910
-0.169954 0.246620 0.029831 0.330046 0.253380
-0.381712 0.070539 0.175961 0.118288 0.429461
-0.116577 0.417614 0.144516 0.383423 0.082386
-0.208389 0.357579 0.212160 0.291611 0.142421
-0.246806 0.322089 0.251326 0.253194 0.177911
-0.016961 -0.351723 -0.145910 0.483039 0.851723
-0.047198 0.429183 0.131665 0.452802 0.070817
-0.206197 -0.118349 -0.010347 0.293803 0.618349
-0.175932 -0.122260 -0.006939 0.324068 0.622260
-0.155793 -0.123204 -0.000790 0.344207 0.623204
-0.395275 -0.201603 0.092660 0.104725 0.701603
-0.181089 -0.157819 -0.019772 0.318911 0.657819
-0.214525 -0.173961 -0.025253 0.285475 0.673961
-0.249082 -0.179377 -0.021412 0.250918 0.679377
-0.282843 -0.175950 -0.008563 0.217157 0.675950
-0.303081 -0.167064 0.006206 0.196919 0.667064
-0.422832 -0.251424 0.289157 0.077168 0.751424
-0.294122 -0.127387 0.017682 0.205878 0.627387
-0.042294 0.163448 -0.079089 0.457706 0.336552
-0.151036 0.166972 -0.034855 0.348964 0.333028
-0.125377 0.103394 -0.097453 0.374623 0.396606
-0.089607 0.163091 -0.072705 0.410393 0.336909
-0.026666 -0.156208 -0.111844 0.473334 0.656208
-0.260390 0.300358 0.189308 0.239610 0.199642
-0.220013 0.336757 0.158407 0.279987 0.163243
-0.121703 0.407709 0.088686 0.378297 0.092291
-0.329162 0.214423 0.369429 0.170838 0.285577
-0.157131 -0.137364 -0.009479 0.342869 0.637364
-0.095161 -0.033830 -0.113647 0.404839 0.533830
-0.048138 0.419403 0.078121 0.451862 0.080597
-0.166891 0.391547 0.171372 0.333109 0.108453
-0.393457 0.062031 0.303357 0.106543 0.437969
-0.105481 0.238036 -0.015224 0.394519 0.261964
-0.113369 0.251347 -0.015599 0.386631 0.248653
-0.120289 0.268189 -0.018233 0.379711 0.231811
-0.125223 0.287946 -0.008908 0.374777 0.212054
-0.134562 0.307779 0.030913 0.365438 0.192221
-0.153986 0.231369 0.014225 0.346014 0.268631
-0.161513 0.228087 0.014000 0.338487 0.271913
-0.167521 0.224491 0.013159 0.332479 0.275509
-0.206812 0.203827 0.019181 0.293188 0.296173
-0.342602 0.103683 0.097361 0.157398 0.396317
-0.092826 -0.074649 -0.084090 0.407174 0.574649
-0.116632 -0.151781 -0.036292 0.383368 0.651781
-0.140677 -0.149434 -0.019617 0.359323 0.649434
-0.146266 0.234408 0.019980 0.353734 0.265592
-0.335821 0.171881 0.173864 0.164179 0.328119
-0.081103 -0.150511 -0.084601 0.418897 0.650511
-0.156265 0.330223 0.062784 0.343735 0.169777
-0.036368 -0.013487 -0.182822 0.463632 0.513487
-0.068927 -0.048235 -0.145032 0.431073 0.548235
-0.033261 -0.053598 -0.156164 0.466739 0.553598
-0.121893 0.020787 -0.101766 0.378107 0.479213
-0.047625 0.396131 0.048826 0.452375 0.103869
-0.046001 0.361930 0.039022 0.453999 0.138070
-0.104467 0.354343 0.047300 0.395533 0.145657
-0.229630 0.266301 0.084873 0.270370 0.233699
-0.190652 0.102776 -0.009490 0.309348 0.397224
-0.196711 0.301285 0.076033 0.303289 0.198715
-0.275980 0.090768 0.011471 0.224020 0.409232
-0.224338 0.133834 0.004358 0.275662 0.366166
-0.299404 0.138643 0.052734 0.200596 0.361357
-0.117763 0.385653 0.059826 0.382237 0.114347
-0.140282 0.037100 -0.068868 0.359718 0.462900
-0.256624 0.279401 0.132371 0.243376 0.220599
-0.214948 0.317302 0.116810 0.285052 0.182698
-0.256914 0.226336 0.080765 0.243086 0.273664
-0.366062 0.123575 0.202320 0.133938 0.376425
-0.296702 0.218761 0.124247 0.203298 0.281239
-0.372518 0.130912 0.303307 0.127482 0.369088
-0.247258 0.173990 0.031516 0.252742 0.326010
-0.117429 -0.014425 -0.080474 0.382571 0.514425
-0.122698 0.095283 -0.146360 0.377302 0.404717
-0.140663 0.100078 -0.100372 0.359337 0.399922
-0.108974 0.076531 -0.176647 0.391026 0.423469
-0.147537 -0.189510 -0.052968 0.352463 0.689510
-0.209912 -0.220146 -0.058188 0.290088 0.720146
-0.265918 -0.230084 -0.050299 0.234082 0.730084
-0.310585 -0.226569 -0.029114 0.189415 0.726569
-0.340339 -0.211526 -0.001299 0.159661 0.711526
-0.353543 -0.146472 0.069154 0.146457 0.646472
-0.422025 -0.083067 0.267287 0.077975 0.583067
-0.326504 -0.086482 0.045362 0.173496 0.586482
-0.288142 -0.070916 0.021607 0.211858 0.570916
-0.239301 -0.068624 0.003563 0.260699 0.568624
-0.193062 -0.075403 -0.009174 0.306938 0.575403
-0.157134 -0.084682 -0.013288 0.342866 0.584682
-0.131976 -0.093972 -0.019275 0.368024 0.593972
-0.413761 -0.102571 0.418861 0.086239 0.602571
-0.138112 0.107549 -0.079560 0.361888 0.392451
-0.098098 0.002003 -0.136697 0.401902 0.497997
-0.099202 0.101431 -0.176765 0.400798 0.398569
-0.079989 0.116324 -0.158112 0.420011 0.383676
-0.098279 0.104464 -0.156964 0.401721 0.395536
-0.127424 0.116791 -0.064452 0.372576 0.383209
-0.073495 0.121035 -0.168039 0.426505 0.378965
-0.068913 0.126492 -0.119505 0.431087 0.373508
-0.132782 -0.122359 -0.007582 0.367218 0.622359
-0.111889 -0.112416 -0.029658 0.388111 0.612416
-0.098921 -0.103944 -0.053168 0.401079 0.603944
-0.313803 -0.159680 0.021940 0.186197 0.659680
-0.336274 -0.179408 0.023576 0.163726 0.679408
-0.002904 -0.008539 -0.170718 0.497096 0.508539
0.262390 -0.116084 0.005419 0.762390 0.616084
-0.007666 0.122887 -0.123057 0.492334 0.377113
0.413828 -0.295341 0.152817 0.913828 0.795341
0.148481 -0.082961 -0.028804 0.648481 0.582961
0.187384 -0.078231 -0.025875 0.687384 0.578231
0.225074 -0.080456 -0.015572 0.725074 0.580456
0.276787 -0.106394 0.014364 0.776787 0.606394
0.115261 -0.093452 -0.022880 0.615261 0.593452
0.209652 -0.199793 -0.056524 0.709652 0.699793
0.162670 -0.195190 -0.056539 0.662670 0.695190
0.252451 -0.192374 -0.042340 0.752451 0.692374
0.279403 -0.176320 -0.025583 0.779403 0.676320
0.305178 -0.085951 0.037757 0.805178 0.585951
0.087667 0.363935 0.077551 0.587667 0.136065
0.277086 -0.130168 0.017156 0.777086 0.630168
0.408234 -0.135659 0.202710 0.908234 0.635659
0.349069 -0.118883 0.071369 0.849069 0.618883
0.156951 0.063802 -0.030854 0.656951 0.436198
0.000048 0.205196 -0.080687 0.500048 0.294804
-0.005033 0.235613 -0.056425 0.494967 0.264387
0.041314 0.216469 -0.058900 0.541314 0.283531
0.068975 0.226656 -0.032393 0.568975 0.273344
0.028351 0.236631 -0.044672 0.528351 0.263369
0.054863 0.238560 -0.020417 0.554863 0.261440
0.122756 0.270774 0.040450 0.622756 0.229226
-0.013362 0.111159 -0.197218 0.486638 0.388841
-0.006462 0.078725 -0.215104 0.493538 0.421275
0.332722 -0.214694 -0.019508 0.832722 0.714694
0.087060 -0.026790 -0.052076 0.587060 0.526790
0.075239 0.094643 -0.106701 0.575239 0.405357
0.080172 0.074296 -0.098602 0.580172 0.425704
0.271644 0.055691 0.013788 0.771644 0.444309
-0.004366 0.032347 -0.200137 0.495634 0.467653
0.237971 -0.247259 -0.088633 0.737971 0.747259
0.294483 -0.238754 -0.057215 0.794483 0.738754
0.385024 -0.353555 0.064637 0.885024 0.853555
0.063253 -0.207891 -0.113649 0.563253 0.707891
0.123057 -0.176794 -0.042859 0.623057 0.676794
0.150203 0.240830 0.040397 0.650203 0.259170
0.321816 0.161080 0.387126 0.821816 0.338920
0.045447 0.113382 -0.087930 0.545447 0.386618
0.015811 0.123294 -0.084504 0.515811 0.376706
0.106224 0.240641 0.033830 0.606224 0.259359
0.097356 0.241242 0.022654 0.597356 0.258758
0.316230 -0.266882 -0.045660 0.816230 0.766882
0.074973 0.107383 -0.082046 0.574973 0.392617
0.162681 -0.239026 -0.109342 0.662681 0.739026
0.168340 -0.270330 -0.124060 0.668340 0.770330
0.230544 -0.429082 -0.096027 0.730544 0.929082
0.356400 -0.310795 -0.000171 0.856400 0.810795
0.201972 -0.351826 -0.113744 0.701972 0.851826
0.356528 -0.236417 0.008695 0.856528 0.736417
0.388862 -0.264455 0.074124 0.888862 0.764455
-0.001827 0.222324 -0.073446 0.498173 0.277676
0.034815 0.227492 -0.053684 0.534815 0.272508
0.062234 0.232800 -0.029631 0.562234 0.267200
0.036194 0.118861 -0.076439 0.536194 0.381139
0.101594 0.241000 0.027928 0.601594 0.259000
0.084180 0.249671 0.009308 0.584180 0.250329
0.092449 0.241530 0.022113 0.592449 0.258470
0.029246 0.105082 -0.143691 0.529246 0.394918
0.049200 0.242555 -0.010166 0.549200 0.257445
0.022928 0.242376 -0.024009 0.522928 0.257624
-0.007822 0.243320 -0.034129 0.492178 0.256680
0.003772 0.328475 0.024926 0.503772 0.171525
-0.000324 0.306535 -0.023680 0.499676 0.193465
-0.002140 0.284411 -0.034611 0.497860 0.215589
-0.004784 0.262151 -0.031636 0.495216 0.237849
-0.008144 0.244572 -0.032888 0.491856 0.255428
0.049325 0.241789 -0.008924 0.549325 0.258211
0.056759 0.249638 -0.009937 0.556759 0.250362
0.064424 0.260333 -0.012760 0.564424 0.239667
0.070613 0.272337 -0.003904 0.570613 0.227663
0.109694 0.189743 -0.025541 0.609694 0.310257
0.384959 -0.005732 0.401338 0.884959 0.505732
0.069132 0.241444 0.008666 0.569132 0.258556
0.076612 0.245257 0.007938 0.576612 0.254743
0.004003 0.136575 -0.082413 0.504003 0.363425
0.061655 0.125403 -0.048324 0.561655 0.374597
0.009567 0.130270 -0.084526 0.509567 0.369730
0.126153 -0.007132 -0.035224 0.626153 0.507132
0.188675 0.017624 -0.020126 0.688675 0.482376
0.085160 0.087645 -0.073836 0.585160 0.412355
0.327895 -0.399126 -0.022793 0.827895 0.899126
0.297852 -0.341783 -0.061657 0.797852 0.841783
0.251514 -0.279447 -0.090759 0.751514 0.779447
0.091156 0.293425 0.030322 0.591156 0.206575
0.074507 -0.257284 -0.139038 0.574507 0.757284
0.099754 -0.351458 -0.141045 0.599754 0.851458
0.120479 -0.444018 -0.134912 0.620479 0.944018
0.257888 -0.089117 0.000300 0.757888 0.589117
0.342838 -0.062355 0.062541 0.842838 0.562355
0.093132 -0.102809 -0.018681 0.593132 0.602809
0.315089 -0.162074 0.008579 0.815089 0.662074
0.061224 -0.048438 -0.068661 0.561224 0.548438
0.054580 0.084449 -0.146561 0.554580 0.415551
0.370978 -0.051697 0.110279 0.870978 0.551697
0.316131 -0.031534 0.032939 0.816131 0.531534
0.266239 -0.014916 0.000283 0.766239 0.514916
0.192516 -0.020374 -0.014416 0.692516 0.520374
0.138406 -0.035781 -0.024416 0.638406 0.535781
0.098470 -0.052311 -0.036246 0.598470 0.552311
0.008412 -0.090852 -0.115892 0.508412 0.590852
0.352967 0.024862 0.114605 0.852967 0.475138
0.344051 -0.170475 0.024227 0.844051 0.670475
-0.025268 0.125389 -0.175069 0.474732 0.374611
0.077372 0.011898 -0.061299 0.577372 0.488102
0.419357 -0.156335 0.332083 0.919357 0.656335
0.068099 -0.070573 -0.044923 0.568099 0.570573
0.089330 0.086275 -0.035407 0.589330 0.413725
0.293480 -0.131321 0.025149 0.793480 0.631321
0.058853 0.059655 -0.136143 0.558853 0.440345
0.357481 0.075620 0.405007 0.857481 0.424380
0.093398 -0.116348 -0.012979 0.593398 0.616348
0.029003 0.042253 -0.176009 0.529003 0.457747
0.238952 0.271675 0.195017 0.738952 0.228325
0.233000 0.290440 0.278281 0.733000 0.209560
0.379909 0.010576 0.256395 0.879909 0.489424
0.284657 0.219986 0.233596 0.784657 0.280014
0.401280 -0.204904 0.147807 0.901280 0.704904
0.090413 0.387033 0.110659 0.590413 0.112967
-0.028538 0.130442 -0.119541 0.471462 0.369558
0.110278 0.036315 -0.042699 0.610278 0.463685
0.381506 -0.118083 0.109289 0.881506 0.618083
0.222731 -0.098684 -0.016200 0.722731 0.598684
0.188908 -0.096374 -0.017379 0.688908 0.596374
0.091099 0.254893 0.016695 0.591099 0.245107
0.333168 0.090054 0.143969 0.833168 0.409946
0.024681 0.423672 0.137797 0.524681 0.076328
0.130577 0.371317 0.195131 0.630577 0.128683
0.177148 0.338509 0.230105 0.677148 0.161491
0.155773 -0.101155 -0.025827 0.655773 0.601155
0.124037 -0.109028 -0.020247 0.624037 0.609028
0.103171 -0.112727 -0.012728 0.603171 0.612727
0.372047 -0.184314 0.061071 0.872047 0.684314
0.131950 -0.149473 -0.033397 0.631950 0.649473
0.167402 -0.163087 -0.041129 0.667402 0.663087
0.202906 -0.164389 -0.039887 0.702906 0.664389
0.236817 -0.156966 -0.029627 0.736817 0.656966
0.256985 -0.146028 -0.016219 0.756985 0.646028
0.423688 -0.232592 0.249395 0.923688 0.732592
0.246154 -0.106333 -0.004413 0.746154 0.606333
0.074882 0.173525 -0.044910 0.574882 0.326475
0.045995 0.108837 -0.103967 0.545995 0.391163
0.007805 0.166185 -0.077078 0.507805 0.333815
0.189165 0.316851 0.169919 0.689165 0.183149
0.141466 0.351313 0.143242 0.641466 0.148687
0.027735 0.413729 0.082455 0.527735 0.086271
0.279436 0.233744 0.337988 0.779436 0.266256
0.105314 -0.129010 -0.021740 0.605314 0.629010
0.030648 -0.031067 -0.119179 0.530648 0.531067
0.080946 0.402003 0.158780 0.580946 0.097997
0.354712 0.083243 0.269359 0.854712 0.416757
0.022938 0.242690 -0.022725 0.522938 0.257310
0.029556 0.256118 -0.023375 0.529556 0.243882
0.035220 0.273088 -0.026513 0.535220 0.226912
0.039256 0.292831 -0.017291 0.539256 0.207169
0.051908 0.313964 0.021717 0.551908 0.186036
0.076652 0.239850 0.001689 0.576652 0.260150
0.083863 0.237104 0.000480 0.583863 0.262896
0.090160 0.234065 -0.000987 0.590160 0.265935
0.135396 0.213458 0.002862 0.635396 0.286542
0.285343 0.120630 0.069791 0.785343 0.379370
0.034863 -0.071965 -0.090000 0.534863 0.571965
0.066096 -0.146508 -0.043542 0.566096 0.646508
0.089769 -0.142675 -0.029804 0.589769 0.642675
0.069256 0.242491 0.008022 0.569256 0.257509
0.277341 0.189580 0.146602 0.777341 0.310420
0.028416 -0.146373 -0.088707 0.528416 0.646373
0.072506 0.338341 0.053053 0.572506 0.161659
0.002963 -0.046731 -0.148015 0.502963 0.546731
0.053048 0.025294 -0.108947 0.553048 0.474706
0.014936 0.358556 0.042746 0.514936 0.141444
0.156480 0.278496 0.068121 0.656480 0.221504
0.121822 0.111192 -0.022227 0.621822 0.388808
0.118574 0.311881 0.062613 0.618574 0.188119
0.212653 0.103471 -0.008462 0.712653 0.396529
0.155687 0.144153 -0.011465 0.655687 0.355847
0.235749 0.153361 0.030055 0.735749 0.346639
0.024942 0.390971 0.053885 0.524942 0.109029
0.073143 0.042547 -0.077806 0.573143 0.457453
0.184561 0.294111 0.113677 0.684561 0.205889
0.136449 0.330044 0.102464 0.636449 0.169956
0.187518 0.239499 0.060693 0.687518 0.260501
0.314376 0.142862 0.171990 0.814376 0.357138
0.230983 0.234793 0.101211 0.730983 0.265207
0.326774 0.151503 0.270720 0.826774 0.348497
0.179186 0.185945 0.012560 0.679186 0.314055
0.054036 -0.010398 -0.088230 0.554036 0.510398
0.040996 0.100074 -0.153016 0.540996 0.399926
0.062311 0.106314 -0.108172 0.562311 0.393686
0.026167 0.080137 -0.182216 0.526167 0.419863
0.096999 -0.182287 -0.062848 0.596999 0.682287
0.161632 -0.208798 -0.072117 0.661632 0.708798
0.220137 -0.214715 -0.068464 0.720137 0.714715
0.267925 -0.207792 -0.051233 0.767925 0.707792
0.300791 -0.191053 -0.026144 0.800791 0.691053
0.316830 -0.125436 0.042093 0.816830 0.625436
0.399205 -0.062324 0.230629 0.899205 0.562324
0.283715 -0.066784 0.020115 0.783715 0.566784
0.242693 -0.053712 -0.000502 0.742693 0.553712
0.190963 -0.052969 -0.014649 0.690963 0.552969
0.142620 -0.062210 -0.023586 0.642620 0.562210
0.105538 -0.074977 -0.024138 0.605538 0.574977
0.079709 -0.086797 -0.028070 0.579709 0.586797
0.404539 -0.082508 0.378443 0.904539 0.582508
0.060459 0.113708 -0.087269 0.560459 0.386292
0.027262 0.004887 -0.142368 0.527262 0.495113
0.013960 0.104659 -0.180936 0.513960 0.395341
-0.005221 0.118802 -0.160398 0.494779 0.381198
0.014476 0.108037 -0.161196 0.514476 0.391963
0.050020 0.122396 -0.070955 0.550020 0.377604
-0.013165 0.122900 -0.169924 0.486835 0.377100
-0.016676 0.128039 -0.121165 0.483324 0.371961
0.079838 -0.115021 -0.016697 0.579838 0.615021
0.059648 -0.106922 -0.036523 0.559648 0.606922
0.045144 -0.098717 -0.058906 0.545144 0.598717
0.268322 -0.137610 -0.001420 0.768322 0.637610
0.295145 -0.157364 -0.001197 0.795145 0.657364
-0.236760 -0.151817 -0.024158 0.263240 0.651817
-0.194498 -0.151190 -0.026184 0.305502 0.651190
-0.235663 -0.188486 -0.029527 0.264337 0.688486
-0.279338 -0.152639 -0.009361 0.220662 0.652639
-0.238052 -0.115012 0.000553 0.261948 0.615012
0.194008 -0.135164 -0.044097 0.694008 0.635164
0.238953 -0.133559 -0.041368 0.738953 0.633559
0.194649 -0.173602 -0.048834 0.694649 0.673602
0.149083 -0.136958 -0.034219 0.649083 0.636958
0.193279 -0.096704 -0.017379 0.693279 0.596704
-0.500000 -0.500000 0.000000 0.000000 1.000000
-0.500000 0.500000 0.441953 0.000000 0.000000
-0.450000 -0.500000 0.000000 0.050000 1.000000
-0.450000 0.500000 0.441953 0.050000 0.000000
-0.400000 -0.500000 0.000000 0.100000 1.000000
-0.400000 0.500000 0.441953 0.100000 0.000000
-0.350000 -0.500000 0.000000 0.150000 1.000000
-0.350000 0.500000 0.441953 0.150000 0.000000
-0.300000 -0.500000 0.000000 0.200000 1.000000
-0.300000 0.500000 0.441953 0.200000 0.000000
-0.250000 -0.500000 0.000000 0.250000 1.000000
-0.250000 0.500000 0.441953 0.250000 0.000000
-0.200000 -0.500000 0.000000 0.300000 1.000000
-0.200000 0.500000 0.441953 0.300000 0.000000
-0.150000 -0.500000 0.000000 0.350000 1.000000
-0.150000 0.500000 0.441953 0.350000 0.000000
-0.100000 -0.500000 0.000000 0.400000 1.000000
-0.100000 0.500000 0.441953 0.400000 0.000000
-0.050000 -0.500000 0.000000 0.450000 1.000000
-0.050000 0.500000 0.441953 0.450000 0.000000
0.000000 -0.500000 0.000000 0.500000 1.000000
0.000000 0.500000 0.441953 0.500000 0.000000
0.050000 -0.500000 0.000000 0.550000 1.000000
0.050000 0.500000 0.441953 0.550000 0.000000
0.100000 -0.500000 0.000000 0.600000 1.000000
0.100000 0.500000 0.441953 0.600000 0.000000
0.150000 -0.500000 0.000000 0.650000 1.000000
0.150000 0.500000 0.441953 0.650000 0.000000
0.200000 -0.500000 0.000000 0.700000 1.000000
0.200000 0.500000 0.441953 0.700000 0.000000
0.250000 -0.500000 0.000000 0.750000 1.000000
0.250000 0.500000 0.441953 0.750000 0.000000
0.300000 -0.500000 0.000000 0.800000 1.000000
0.300000 0.500000 0.441953 0.800000 0.000000
0.350000 -0.500000 0.000000 0.850000 1.000000
0.350000 0.500000 0.441953 0.850000 0.000000
0.400000 -0.500000 0.000000 0.900000 1.000000
0.400000 0.500000 0.441953 0.900000 0.000000
0.450000 -0.500000 0.000000 0.950000 1.000000
0.450000 0.500000 0.441953 0.950000 0.000000
0.500000 -0.500000 0.000000 1.000000 1.000000
0.500000 0.500000 0.441953 1.000000 0.000000
-0.500000 -0.450000 0.022098 0.000000 0.950000
0.500000 -0.450000 0.022098 1.000000 0.950000
-0.500000 -0.400000 0.044195 0.000000 0.900000
0.500000 -0.400000 0.044195 1.000000 0.900000
-0.500000 -0.350000 0.066293 0.000000 0.850000
0.500000 -0.350000 0.066293 1.000000 0.850000
-0.500000 -0.300000 0.088391 0.000000 0.800000
0.500000 -0.300000 0.088391 1.000000 0.800000
-0.500000 -0.250000 0.110488 0.000000 0.750000
0.500000 -0.250000 0.110488 1.000000 0.750000
-0.500000 -0.200000 0.132586 0.000000 0.700000
0.500000 -0.200000 0.132586 1.000000 0.700000
-0.500000 -0.150000 0.154684 0.000000 0.650000
0.500000 -0.150000 0.154684 1.000000 0.650000
-0.500000 -0.100000 0.176781 0.000000 0.600000
0.500000 -0.100000 0.176781 1.000000 0.600000
-0.500000 -0.050000 0.198879 0.000000 0.550000
0.500000 -0.050000 0.198879 1.000000 0.550000
-0.500000 0.000000 0.220977 0.000000 0.500000
0.500000 0.000000 0.220977 1.000000 0.500000
-0.500000 0.050000 0.243074 0.000000 0.450000
0.500000 0.050000 0.243074 1.000000 0.450000
-0.500000 0.100000 0.265172 0.000000 0.400000
0.500000 0.100000 0.265172 1.000000 0.400000
-0.500000 0.150000 0.287270 0.000000 0.350000
0.500000 0.150000 0.287270 1.000000 0.350000
-0.500000 0.200000 0.309367 0.000000 0.300000
0.500000 0.200000 0.309367 1.000000 0.300000
-0.500000 0.250000 0.331465 0.000000 0.250000
0.500000 0.250000 0.331465 1.000000 0.250000
-0.500000 0.300000 0.353562 0.000000 0.200000
0.500000 0.300000 0.353562 1.000000 0.200000
-0.500000 0.350000 0.375660 0.000000 0.150000
0.500000 0.350000 0.375660 1.000000 0.150000
-0.500000 0.400000 0.397758 0.000000 0.100000
0.500000 0.400000 0.397758 1.000000 0.100000
-0.500000 0.450000 0.419855 0.000000 0.050000
0.500000 0.450000 0.419855 1.000000 0.050000
3 0 267 164
3 164 167 0
3 72 38 11
3 11 0 72
3 31 228 25
3 25 226 31
3 11 12 317
3 317 268 11
3 141 94 19
3 19 125 141
3 4 5 51
3 51 45 4
3 13 14 317
3 317 12 13
3 167 37 0
3 1 44 125
3 125 19 1
3 3 5 195
3 195 196 3
3 1 4 44
3 23 472 145
3 145 24 23
3 4 275 281
3 281 5 4
3 1 274 4
3 45 44 4
3 281 248 5
3 3 51 5
3 475 258 286
3 286 385 475
3 197 6 122
3 122 196 197
3 27 159 470
3 470 28 27
3 104 105 69
3 69 67 104
3 49 115 131
3 131 209 49
3 101 205 36
3 36 142 101
3 286 384 385
3 55 193 8
3 8 9 55
3 253 254 374
3 374 477 253
3 8 285 9
3 223 222 65
3 65 52 223
3 257 443 442
3 442 258 257
3 443 295 442
3 103 488 486
3 486 526 103
3 110 228 229
3 229 24 110
3 11 302 0
3 268 302 11
3 82 87 12
3 12 11 82
3 267 393 164
3 11 38 82
3 12 87 13
3 14 15 317
3 87 14 13
3 302 268 402
3 402 311 302
3 14 87 15
3 317 312 268
3 15 86 16
3 16 316 15
3 354 370 462
3 462 461 354
3 25 110 7
3 7 33 25
3 16 84 17
3 17 315 16
3 1 354 274
3 175 208 171
3 171 148 175
3 17 83 18
3 18 314 17
3 330 371 266
3 266 280 330
3 354 461 274
3 141 2 94
3 19 354 1
3 241 20 242
3 242 125 241
3 97 167 164
3 164 141 97
3 100 120 119
3 119 101 100
3 486 524 526
3 160 27 29
3 29 30 160
3 139 71 162
3 162 127 139
3 471 468 159
3 159 160 471
3 26 232 233
3 233 112 26
3 120 47 121
3 121 231 120
3 144 163 24
3 24 145 144
3 22 472 23
3 23 231 22
3 120 100 47
3 163 110 24
3 24 230 23
3 164 2 141
3 113 124 226
3 226 130 113
3 110 163 7
3 22 232 26
3 26 154 22
3 55 221 193
3 174 3 196
3 196 188 174
3 65 55 107
3 107 66 65
3 27 160 159
3 63 68 70
3 70 53 63
3 28 222 27
3 189 243 244
3 244 193 189
3 153 472 22
3 22 154 153
3 52 53 224
3 224 223 52
3 27 223 29
3 161 163 471
3 471 160 161
3 113 225 124
3 29 224 30
3 25 130 226
3 156 143 35
3 35 124 156
3 89 179 88
3 88 80 89
3 111 31 35
3 35 143 111
3 118 117 50
3 50 101 118
3 176 171 208
3 208 140 176
3 148 152 175
3 246 30 247
3 247 33 246
3 7 246 33
3 33 130 25
3 71 21 162
3 214 212 216
3 216 192 214
3 127 162 536
3 536 538 127
3 31 226 35
3 139 34 143
3 143 156 139
3 247 130 33
3 186 61 185
3 185 92 186
3 228 31 117
3 117 118 228
3 115 49 48
3 48 219 115
3 72 37 73
3 73 41 72
3 37 167 165
3 165 39 37
3 37 72 0
3 178 38 72
3 72 41 178
3 84 83 17
3 39 73 37
3 235 240 59
3 59 166 235
3 39 165 40
3 40 74 39
3 182 83 84
3 84 181 182
3 203 64 129
3 129 36 203
3 39 74 42
3 42 73 39
3 41 81 178
3 91 106 181
3 181 180 91
3 42 80 88
3 88 73 42
3 90 96 77
3 77 91 90
3 185 76 62
3 62 78 185
3 194 106 204
3 204 211 194
3 92 206 216
3 216 186 92
3 44 238 241
3 241 125 44
3 219 166 218
3 218 115 219
3 45 237 44
3 134 131 220
3 220 45 134
3 51 134 45
3 156 124 46
3 46 70 156
3 53 46 225
3 225 224 53
3 113 247 225
3 126 100 142
3 142 209 126
3 22 231 232
3 217 47 126
3 126 198 217
3 48 102 129
3 129 64 48
3 79 60 239
3 239 237 79
3 167 97 99
3 99 240 167
3 126 47 100
3 49 102 48
3 36 129 49
3 49 142 36
3 116 123 117
3 117 111 116
3 101 50 205
3 50 187 205
3 236 217 198
3 198 134 236
3 3 236 51
3 52 65 66
3 66 105 52
3 223 27 222
3 224 225 30
3 52 105 53
3 53 70 46
3 105 66 69
3 21 68 54
3 54 530 21
3 486 484 524
3 9 107 55
3 55 65 222
3 222 221 55
3 28 158 56
3 56 221 28
3 221 222 28
3 154 155 173
3 173 157 154
3 213 215 192
3 192 207 213
3 43 61 57
3 57 202 43
3 202 57 212
3 212 210 202
3 123 137 147
3 147 50 123
3 212 135 210
3 132 540 542
3 542 544 132
3 235 98 240
3 166 219 235
3 238 239 60
3 60 99 238
3 240 98 167
3 79 166 75
3 75 60 79
3 99 20 238
3 61 186 57
3 185 61 76
3 43 146 61
3 61 146 76
3 74 40 183
3 183 191 74
3 62 76 146
3 146 78 62
3 105 63 53
3 67 103 104
3 212 186 216
3 64 219 48
3 165 92 40
3 68 63 104
3 104 54 68
3 151 108 107
3 107 9 151
3 108 10 109
3 109 69 108
3 104 103 54
3 484 482 522
3 522 524 484
3 21 71 68
3 66 108 69
3 69 109 67
3 68 71 70
3 71 156 70
3 139 127 34
3 73 88 41
3 74 95 42
3 191 183 96
3 96 95 191
3 98 165 167
3 59 240 75
3 75 166 59
3 75 99 60
3 185 184 40
3 40 92 185
3 146 77 78
3 95 89 42
3 77 184 78
3 184 183 40
3 45 220 237
3 89 80 42
3 16 85 84
3 179 41 88
3 41 179 81
3 86 85 16
3 38 178 86
3 86 87 38
3 38 87 82
3 201 194 32
3 32 208 201
3 83 200 18
3 89 180 179
3 85 181 84
3 178 81 179
3 179 86 178
3 15 87 86
3 86 179 85
3 95 96 90
3 90 89 95
3 180 89 90
3 90 91 180
3 77 146 91
3 85 179 180
3 180 181 85
3 146 43 106
3 106 91 146
3 181 106 182
3 165 98 203
3 203 206 165
3 234 227 116
3 116 34 234
3 137 177 147
3 520 480 478
3 2 370 94
3 94 370 19
3 74 191 95
3 183 184 77
3 77 96 183
3 99 97 20
3 97 242 20
3 99 75 240
3 98 64 203
3 98 235 64
3 142 100 101
3 23 230 231
3 119 229 118
3 118 101 119
3 129 102 49
3 67 490 103
3 103 528 54
3 520 482 480
3 63 105 104
3 211 32 194
3 43 204 106
3 107 108 66
3 108 151 10
3 10 496 109
3 109 494 67
3 228 110 25
3 143 34 116
3 116 111 143
3 111 117 31
3 116 137 123
3 221 189 193
3 112 155 26
3 155 154 26
3 225 46 124
3 247 30 225
3 124 35 226
3 47 217 114
3 114 121 47
3 128 232 121
3 121 114 128
3 217 174 114
3 218 79 220
3 220 115 218
3 79 237 220
3 227 93 137
3 137 116 227
3 117 123 50
3 119 230 229
3 24 229 230
3 120 231 230
3 230 119 120
3 231 121 232
3 188 128 114
3 114 174 188
3 243 133 112
3 112 233 243
3 6 193 122
3 71 139 156
3 242 141 125
3 134 51 236
3 209 142 49
3 54 528 530
3 127 234 34
3 234 93 227
3 232 128 233
3 244 243 233
3 233 245 244
3 130 247 113
3 115 220 131
3 198 126 209
3 209 131 198
3 93 540 132
3 132 177 93
3 58 215 132
3 132 544 58
3 133 155 112
3 190 133 243
3 243 189 190
3 131 134 198
3 214 172 135
3 135 212 214
3 210 135 136
3 136 169 210
3 138 58 172
3 172 214 138
3 135 172 136
3 170 150 149
3 149 32 170
3 546 172 58
3 58 544 546
3 177 137 93
3 138 192 58
3 149 140 32
3 140 208 32
3 149 176 140
3 141 242 97
3 161 7 163
3 145 468 471
3 471 144 145
3 469 158 468
3 468 153 469
3 147 187 50
3 147 132 213
3 213 187 147
3 147 177 132
3 150 136 550
3 550 489 150
3 176 148 171
3 175 199 208
3 210 169 211
3 211 204 210
3 172 546 548
3 548 136 172
3 150 169 136
3 150 491 149
3 151 337 10
3 9 336 151
3 148 499 152
3 262 428 369
3 369 378 262
3 489 491 150
3 158 157 56
3 468 145 472
3 472 153 468
3 154 469 153
3 155 133 173
3 154 157 469
3 157 190 56
3 28 470 158
3 158 469 157
3 158 470 159
3 159 468 158
3 163 144 471
3 30 161 160
3 161 246 7
3 30 246 161
3 21 532 162
3 526 528 103
3 302 267 0
3 164 370 2
3 165 206 92
3 79 218 166
3 6 417 168
3 168 193 6
3 8 193 168
3 168 417 8
3 43 202 204
3 150 211 169
3 150 170 211
3 32 211 170
3 200 83 201
3 201 199 200
3 190 221 56
3 133 190 173
3 173 190 157
3 174 236 3
3 152 377 175
3 200 421 313
3 313 18 200
3 249 390 255
3 255 263 249
3 149 493 176
3 176 495 148
3 136 548 550
3 106 194 182
3 182 201 83
3 182 194 201
3 184 185 78
3 186 212 57
3 192 215 58
3 205 187 207
3 207 206 205
3 122 245 188
3 188 196 122
3 188 245 128
3 193 245 122
3 190 189 221
3 138 214 192
3 207 187 213
3 5 248 195
3 343 399 437
3 437 277 343
3 195 248 419
3 419 197 195
3 195 197 196
3 197 351 6
3 174 217 236
3 175 396 199
3 201 208 199
3 199 421 200
3 393 267 269
3 269 391 393
3 204 202 210
3 36 205 203
3 205 206 203
3 207 216 206
3 192 216 207
3 132 215 213
3 64 235 219
3 223 224 29
3 118 229 228
3 128 245 233
3 127 538 234
3 234 538 93
3 532 534 162
3 237 239 44
3 20 241 238
3 239 238 44
3 244 245 193
3 255 339 261
3 261 446 255
3 349 350 277
3 277 329 349
3 337 336 296
3 296 299 337
3 253 450 254
3 164 393 370
3 370 354 19
3 512 510 525
3 525 523 512
3 259 257 387
3 387 260 259
3 293 333 334
3 334 283 293
3 453 452 256
3 256 341 453
3 386 473 474
3 474 387 386
3 350 343 277
3 252 451 253
3 253 477 252
3 254 339 373
3 373 374 254
3 360 344 279
3 279 429 360
3 329 330 348
3 348 349 329
3 339 390 373
3 346 340 448
3 448 347 346
3 390 339 255
3 466 359 467
3 467 388 466
3 199 428 421
3 6 351 417
3 252 381 256
3 256 452 252
3 197 419 351
3 257 475 386
3 386 387 257
3 9 285 336
3 443 259 444
3 444 282 443
3 417 441 285
3 285 8 417
3 258 475 257
3 417 413 441
3 390 388 474
3 474 373 390
3 259 443 257
3 444 283 282
3 446 359 255
3 260 444 259
3 276 445 353
3 353 383 276
3 400 369 428
3 428 396 400
3 265 372 353
3 353 446 265
3 265 261 340
3 340 372 265
3 175 377 396
3 340 261 448
3 364 397 434
3 434 432 364
3 466 263 359
3 255 359 263
3 263 466 249
3 432 436 410
3 410 287 432
3 383 353 372
3 372 368 383
3 447 454 345
3 345 352 447
3 372 264 356
3 356 368 372
3 265 446 261
3 449 448 339
3 339 254 449
3 270 408 409
3 409 322 270
3 278 279 344
3 344 439 278
3 326 328 250
3 250 462 326
3 303 269 267
3 267 302 303
3 405 406 321
3 321 320 405
3 16 315 316
3 302 271 303
3 460 327 455
3 455 289 460
3 375 292 308
3 308 307 375
3 269 304 270
3 270 391 269
3 358 294 423
3 423 266 358
3 311 271 302
3 272 304 269
3 269 303 272
3 271 403 318
3 318 310 271
3 303 271 310
3 310 272 303
3 272 310 318
3 318 319 272
3 430 424 431
3 431 394 430
3 409 291 410
3 410 322 409
3 322 410 436
3 436 426 322
3 439 344 438
3 438 392 439
3 461 458 274
3 274 275 4
3 440 360 363
3 363 275 440
3 274 457 275
3 301 300 383
3 383 389 301
3 260 342 445
3 445 444 260
3 355 277 437
3 437 420 355
3 452 451 252
3 355 429 371
3 371 329 355
3 309 459 305
3 305 289 309
3 278 294 358
3 358 331 278
3 328 326 393
3 393 460 328
3 278 331 279
3 355 329 277
3 266 371 279
3 279 358 266
3 433 427 416
3 416 435 433
3 266 425 280
3 346 352 345
3 345 340 346
3 399 248 456
3 456 437 399
3 275 363 281
3 281 456 248
3 298 293 300
3 300 301 298
3 443 282 295
3 282 334 296
3 296 295 282
3 276 300 283
3 283 444 276
3 283 334 282
3 300 293 283
3 251 531 284
3 284 298 251
3 337 151 336
3 332 508 506
3 506 297 332
3 285 441 442
3 442 295 285
3 258 442 441
3 441 286 258
3 252 477 380
3 380 381 252
3 273 422 287
3 287 291 273
3 425 411 280
3 432 287 422
3 422 430 432
3 376 401 323
3 323 352 376
3 509 511 551
3 551 379 509
3 392 289 455
3 455 439 392
3 270 322 391
3 459 457 274
3 274 458 459
3 459 290 305
3 327 393 391
3 391 423 327
3 458 250 328
3 328 290 458
3 291 306 273
3 409 306 291
3 287 410 291
3 415 270 304
3 304 324 415
3 292 375 306
3 306 409 292
3 375 273 306
3 333 293 298
3 298 284 333
3 294 439 455
3 455 327 294
3 278 439 294
3 432 434 436
3 295 336 285
3 295 296 336
3 284 332 333
3 338 337 299
3 299 297 338
3 299 333 332
3 332 297 299
3 338 10 337
3 490 488 103
3 298 301 251
3 334 299 296
3 276 383 300
3 301 389 251
3 272 324 304
3 325 407 415
3 415 324 325
3 305 460 289
3 393 327 460
3 290 328 305
3 409 308 292
3 272 319 324
3 307 320 321
3 321 375 307
3 308 408 307
3 409 408 308
3 440 275 457
3 457 438 440
3 289 392 309
3 309 457 459
3 271 311 403
3 318 403 404
3 404 319 318
3 18 313 314
3 312 402 268
3 17 314 315
3 311 402 403
3 421 428 262
3 262 418 421
3 313 405 314
3 315 404 403
3 403 316 315
3 314 405 315
3 316 317 15
3 312 316 402
3 312 317 316
3 320 319 404
3 404 405 320
3 319 320 324
3 307 325 320
3 405 313 406
3 321 335 375
3 391 426 423
3 361 376 411
3 411 433 361
3 352 366 447
3 401 366 323
3 325 324 320
3 307 408 407
3 407 325 307
3 393 326 370
3 423 294 327
3 460 305 328
3 330 329 371
3 451 450 253
3 280 347 330
3 450 449 254
3 331 358 279
3 284 529 332
3 338 502 500
3 500 10 338
3 299 334 333
3 431 424 418
3 418 262 431
3 321 406 335
3 273 375 335
3 335 424 273
3 297 502 338
3 339 448 261
3 345 264 372
3 372 340 345
3 382 341 256
3 256 381 382
3 464 453 341
3 341 463 464
3 353 342 446
3 260 467 342
3 445 342 353
3 419 412 351
3 350 452 357
3 357 343 350
3 457 309 438
3 438 344 440
3 352 323 366
3 345 454 264
3 280 352 346
3 346 347 280
3 347 348 330
3 449 450 348
3 348 347 449
3 450 451 349
3 349 348 450
3 452 350 451
3 349 451 350
3 341 362 463
3 412 399 343
3 343 357 412
3 280 376 352
3 462 250 461
3 279 371 429
3 420 437 456
3 456 363 420
3 510 527 525
3 264 447 356
3 389 383 368
3 368 356 389
3 357 453 465
3 465 412 357
3 453 357 452
3 342 467 446
3 467 359 446
3 429 355 420
3 420 363 429
3 360 440 344
3 435 361 433
3 376 361 401
3 435 401 361
3 463 362 414
3 414 413 463
3 341 382 362
3 464 463 413
3 413 417 464
3 360 429 363
3 363 456 281
3 365 364 430
3 430 394 365
3 416 427 436
3 436 434 416
3 424 335 418
3 377 501 503
3 503 505 377
3 365 397 364
3 505 507 400
3 400 377 505
3 401 435 543
3 543 541 401
3 264 454 447
3 288 416 367
3 367 397 288
3 397 545 288
3 378 395 262
3 369 400 378
3 326 462 370
3 474 473 374
3 374 373 474
3 390 249 388
3 385 384 476
3 476 473 385
3 280 411 376
3 152 501 377
3 396 377 400
3 491 493 149
3 378 379 395
3 499 501 152
3 378 509 379
3 365 394 379
3 379 551 365
3 381 476 398
3 398 382 381
3 477 374 473
3 473 380 477
3 398 362 382
3 380 476 381
3 286 414 384
3 476 384 398
3 473 476 380
3 385 473 386
3 386 475 385
3 388 387 474
3 387 388 260
3 249 466 388
3 388 467 260
3 356 535 389
3 389 533 251
3 514 523 521
3 521 516 514
3 322 426 391
3 392 438 309
3 394 431 379
3 424 422 273
3 395 431 262
3 431 395 379
3 396 428 199
3 365 547 397
3 367 434 397
3 378 507 509
3 384 414 398
3 398 414 362
3 286 441 414
3 248 399 419
3 400 507 378
3 495 497 148
3 397 547 545
3 401 541 366
3 316 403 402
3 315 405 404
3 313 418 406
3 406 418 335
3 313 421 418
3 270 415 407
3 407 408 270
3 416 434 367
3 427 411 425
3 425 426 427
3 412 465 351
3 412 419 399
3 351 465 417
3 441 413 414
3 288 435 416
3 433 411 427
3 430 422 424
3 430 364 432
3 423 425 266
3 423 426 425
3 426 436 427
3 288 545 435
3 365 549 547
3 444 445 276
3 366 539 447
3 447 537 356
3 510 332 527
3 448 449 347
3 453 464 465
3 290 459 458
3 458 461 250
3 465 464 417
3 482 520 522
3 538 540 93
3 67 492 490
3 481 556 479
3 67 494 492
3 483 556 481
3 485 554 483
3 493 495 176
3 109 496 494
3 487 552 485
3 489 550 487
3 497 499 148
3 10 498 496
3 10 500 498
3 297 504 502
3 297 506 504
3 365 551 549
3 332 510 508
3 523 514 512
3 545 543 435
3 541 539 366
3 521 518 516
3 513 553 511
3 332 529 527
3 539 537 447
3 515 555 513
3 535 533 389
3 517 557 515
3 557 517 519
3 251 533 531
3 284 531 529
3 530 532 21
3 534 536 162
3 356 537 535
3 550 552 487
3 511 553 551
3 552 554 485
3 513 555 553
3 554 556 483
3 515 557 555
